<svg xmlns="http://www.w3.org/2000/svg" width="1646.4" height="817.5" version="1.1">
  <style>
    text{font-family:"Segoe UI"}
    .data-delivery.arrow-line{stroke:#e3ce1b}
    .data-delivery.arrow-tip{fill:#e3ce1b}
    .data-collection.arrow-line{stroke:#00a2ff}
    .data-collection.arrow-tip{fill:#00a2ff}
    .control-signal.arrow-line{stroke:#ee220c}
    .control-signal.arrow-tip{fill:#ee220c}
    .feedback.arrow-line{stroke:#1db100}
    .feedback.arrow-tip{fill:#1db100}
    .arrow-line{fill:none;stroke-width:3;stroke-linecap:butt;stroke-linejoin:miter;stroke-miterlimit:4;stroke-dasharray:none;}
    .icon>path{fill:#fff;fill-opacity:1;fill-rule:evenodd;stroke:none}
    .header {  font-variant:normal;font-weight:400;font-size:33px;writing-mode:lr-tb;fill:#fff }
    .label {font-variant:normal;font-weight:400;font-size:28px;writing-mode:lr-tb;fill:#fff}
  </style>
  <g transform="matrix(1.33333 0 0 -1.33333 -443.7 1125.6)">

        <g class="icon">
          <path d="M815.8 491.4a35.7 35.7 0 0 0-3.7-1.5c-.7 0-1.4.4-1.7 1.1-.3 1 .1 2 1 2.4l2.8 1.2c.9.5 2 .1 2.4-.8.4-.8.1-2-.8-2.4m-43.7-2.7a1.8 1.8 0 0 0-2-1.4c-1.4.2-2.7.5-4 .9a1.8 1.8 0 0 0 1 3.4l3.6-.8c1-.2 1.6-1.2 1.4-2.1m-9.5 2.3a1.8 1.8 0 0 0-2.3-1l-3 1.4c-1 .5-1.3 1.6-.8 2.4.4 1 1.5 1.3 2.4.8l2.7-1.2c1-.4 1.4-1.4 1-2.4m52.5 9.8c3.8 1.7 6.7 3.6 8.9 5.8V493c-1-3.2-4.6-6.4-10.2-8.9-7.3-3.2-17-5-27.3-5s-20 1.8-27.2 5c-5.6 2.5-9.2 5.7-10.2 8.9v13.6c2.1-2.2 5.1-4.1 8.8-5.8a72.2 72.2 0 0 1 28.6-5.3c10.8 0 21 1.9 28.6 5.3zm-2.7 25.7c7.5-2.9 11.6-7 11.6-11.5s-4.1-8.6-11.6-11.5a74 74 0 0 0-25.9-4.1 74 74 0 0 0-25.8 4.1c-7.5 2.9-11.6 7-11.6 11.5 0 4.6 4.1 8.6 11.6 11.5a74 74 0 0 0 25.8 4.2 74 74 0 0 0 25.9-4.2zm4.2-52.6c.4-.9.1-2-.8-2.4a35.7 35.7 0 0 0-3.7-1.5c-.7 0-1.4.4-1.7 1.1-.3 1 .1 2 1 2.4 1 .3 2 .8 2.8 1.2.9.5 2 .1 2.4-.8m-44.5-5.1a1.8 1.8 0 0 0-2-1.4c-1.4.2-2.7.5-4 .9a1.8 1.8 0 0 0 1 3.4l3.6-.8c1-.2 1.6-1.2 1.4-2.1m-9.5 2.3a1.8 1.8 0 0 0-2.3-1l-3 1.4c-1 .5-1.3 1.5-.8 2.4.4 1 1.5 1.3 2.4.8l2.7-1.2c1-.4 1.4-1.4 1-2.4m24 4.2c-10.8 0-21 2-28.7 5.3a28.6 28.6 0 0 0-8.8 5.8v-13.6c1-3.2 4.6-6.4 10.2-8.9 7.3-3.2 17-5 27.2-5 10.4 0 20 1.8 27.3 5 5.6 2.5 9.1 5.7 10.2 8.9v13.6c-2.2-2.1-5.1-4-8.9-5.8a72.2 72.2 0 0 0-28.6-5.3m30.1-22c.4-.9.1-2-.8-2.4a35.8 35.8 0 0 0-3.7-1.5c-.7 0-1.4.4-1.7 1.1-.3 1 .1 2 1 2.4 1 .3 2 .8 2.8 1.2.9.5 2 .1 2.4-.8m-44.5-5.1a1.8 1.8 0 0 0-2-1.4c-1.4.2-2.7.5-4 .9a1.8 1.8 0 0 0 1 3.4l3.6-.8c1-.2 1.6-1.2 1.4-2.1m-9.5 2.3a1.8 1.8 0 0 0-2.3-1l-3 1.4c-1 .5-1.3 1.5-.8 2.4.4 1 1.5 1.3 2.4.8l2.7-1.2c1-.4 1.4-1.4 1-2.4m24 5c-10.8 0-21 1.9-28.7 5.3a28.6 28.6 0 0 0-8.8 5.8v-13.7c1-3.2 4.6-6.3 10.2-8.8 7.3-3.2 17-5 27.2-5 10.4 0 20 1.8 27.3 5 5.6 2.5 9.1 5.6 10.2 8.8v13.7c-2.2-2.2-5.1-4.1-8.9-5.8a72.2 72.2 0 0 0-28.6-5.3"/>
        </g>
        <g transform="matrix(1 0 0 -1 408.8 763)">
          <path d="M59.5 0h146.7c17.5 0 28 0 35 3 10 3.6 18 11.5 21.6 21.6 2.9 7 2.9 17.4 2.9 34.9v101.4c0 17.5 0 28-3 35-3.6 10-11.5 17.9-21.6 21.6-7 2.9-17.4 2.9-34.9 2.9H59.5c-17.5 0-28 0-35-3-10-3.6-18-11.5-21.6-21.6C0 188.8 0 178.4 0 161V59.5c0-17.5 0-28 3-35 3.6-10 11.5-18 21.6-21.6C31.6 0 42 0 59.5 0Z" style="fill:none;stroke:#939393;stroke-width:2;stroke-linecap:butt;stroke-linejoin:miter;stroke-miterlimit:4;stroke-dasharray:none;stroke-opacity:.4"/>
        </g>
    <g>
        <g transform="translate(724.4 406.4)">
          <text xml:space="preserve" class="label" transform="scale(1 -1)">OpenCEM</text>
        </g>
        <g transform="translate(738 376.7)">
          <text xml:space="preserve" class="label" transform="scale(1 -1)">Dataset</text>
        </g>
    </g>
        <g transform="translate(438 780.2)">
          <text xml:space="preserve" class="header" transform="scale(1 -1)">Energy Control</text>
        </g>
    <g>
        <g transform="translate(471.8 623.7)">
          <text xml:space="preserve" class="label" transform="scale(1 -1)">LLM-Driven</text>
        </g>
        <g transform="translate(478.2 594)">
          <text xml:space="preserve" class="label" transform="scale(1 -1)">In-Context</text>
        </g>
        <g transform="translate(436.7 564.3)">
          <text xml:space="preserve" class="label" transform="scale(1 -1)">Control Algorithm</text>
        </g>
    </g>
        <g transform="translate(405.9 406.2)">
          <text xml:space="preserve" class="header" transform="scale(1 -1)">Physical Installation</text>
        </g>

              <g>
                <path d="M424.3 388.6H659c17.5 0 28 0 35-2.9 10-3.6 17.9-11.6 21.6-21.6 2.9-7 2.9-17.5 2.9-35v-13.6c0-17.4 0-28-3-34.9-3.6-10-11.5-18-21.6-21.6-7-3-17.4-3-34.9-3H424.3c-17.4 0-28 0-34.9 3-10 3.6-18 11.5-21.6 21.6-3 7-3 17.5-3 35v13.6c0 17.4 0 27.9 3 34.9 3.6 10 11.5 18 21.6 21.6 7 3 17.5 3 34.9 3z" style="fill:#fffcf8;fill-opacity:0;fill-rule:nonzero;stroke:none"/>
                <g transform="matrix(1 0 0 -1 364.8 388.6)">
                  <path d="M59.5 0h234.7C311.6 0 322 0 329 3c10 3.6 18 11.5 21.6 21.6 3 7 3 17.4 3 34.9V73c0 17.5 0 28-3 35-3.6 10-11.6 18-21.6 21.6-7 2.9-17.5 2.9-35 2.9H59.6c-17.5 0-28 0-35-3-10-3.6-18-11.5-21.6-21.6C0 101 0 90.6 0 73.1V59.5c0-17.5 0-28 3-35 3.6-10 11.5-18 21.6-21.6C31.6 0 42 0 59.5 0Z" style="fill:none;stroke:#939393;stroke-width:2;stroke-linecap:butt;stroke-linejoin:miter;stroke-miterlimit:4;stroke-dasharray:none"/>
                </g>
              </g>

        <g class="icon">
          <path d="M622.6 346.6h-7.9c-.5 0-.9.4-.9.9v3.1c0 .5.4 1 1 1h1v3.8c0 .5.4.9.8.9h3.2l3.7-.2.4 3.5c0 .5.4.8.9.8h8.2c.4 0 .8-.3.9-.8l.2-2.2 1.1.2a40 40 0 0 1 12.6 4.9v.6c0 .5.4 1 1 1h3c.5 0 1-.5 1-1v-3.9h2l.8 9.1c0 .5.4.8.9.8h8.2c.4 0 .8-.3.8-.8l.8-7.2 3 1.4v.6c0 .5.4 1 1 1h3c.5 0 .9-.5.9-1v-3.9h1c.5 0 1-.4 1-.8v-3.2c0-.5-.5-.9-1-.9H667l.7-6 1.5-13.9 1.5-14 .8-7.6a.9.9 0 0 0-.9-1h-19.2a.9.9 0 0 0-.9 1l3.8 41.5h-7.9l-4.3.3v-3h1c.6 0 1-.5 1-1v-3.1c0-.5-.4-1-1-1h-7.9l.6-5.8 3-28a.9.9 0 0 0-.3-.6.9.9 0 0 0-.6-.3H620a.9.9 0 0 0-.9 1l3.5 33.8zm-5 5h1.3v3h-1.4zm3 0h2.5l.3 2.8h-2.8zm4.2 0h8.1l-.4 3.7c-3.3-.6-5.4-.8-7.4-1zm9.9 0h2.6v3.8c0 .5.3.9.8.9h1.6c2.5.1 4 0 6.2-.1v2.2c0 .4.4.8.9.8h1v1.2a42.5 42.5 0 0 0-13.5-4.8zm4.3 0h1.3v3H639zm-5.6-5h-7.6l8.1-4.4zm-1 10.5-.2 1.6h-6.6l-.3-2.5c1.8 0 4 .3 7 .9zm18.5 2.1v3h-1.3v-3zm5.6 0h8.2l-.8 8.2h-6.6zm10 0h2.8v1.4l-2.8-1.3zm4.6 0h1.3v3h-1.3zm-5.8-4.9h-6.8l7.2-4.3zm2-18.5L666 347l-10-5.4zm1.5-14.2-1.2 11.4-12.7-6.1zM656 353.7l-1-10.7 10 5.3zm-1.2-13.5-1-12 12.5 6.1zm-1.3-14.7-1-11.4 15 6.1zm2.4-12h13.7l-.5 5.5zm-19 .6-1.2 11.2-12.7-5.6zm-1.5 14-1.2 11-10.1-5.4zM621 313.6h12.3l-11.8 4.8zm3.2 31.8-1-10.2 10 5.4zm-1.3-13-1.1-11.4 12.5 5.6zm51.5 25h-26.7v-1.3h26.7zm-32.1-7.6h-26.7v-1.5h26.7z" />
        </g>
        <g class="icon">
          <path d="M572.2 317.3h-.9v31.9h1a3.5 3.5 0 1 1 0 7h-1.5v3.3a.9.9 0 0 1-.5.8 1 1 0 0 1-.4.1h-2.4v3.3a.9.9 0 0 1-.6.8 1 1 0 0 1-.3 0h-6a1 1 0 0 1-1-.5V360.4h-2.4a1 1 0 0 1-.9-.5V356.2h-28v3.3a1 1 0 0 1-.5.8 1 1 0 0 1-.4.1H525v3.3a.9.9 0 0 1-.6.8 1 1 0 0 1-.3 0H518a1 1 0 0 1-.8-.5l-.1-.3v-3.3h-2.4a1 1 0 0 1-.9-.5V356.2h-1.5a3.5 3.5 0 1 1 0-7h1v-31.9h-1a3.5 3.5 0 0 1 0-7h60a3.5 3.5 0 0 1 0 7zm-10.8 45.5h4.3v-2.4h-4.3zm-3.3-4.2H569v-2.4h-11zm-39.2 4.2h4.3v-2.4h-4.3zm-3.3-4.2h10.9v-2.4h-11zm-5-5.9a1.7 1.7 0 0 0 1 1.6l.7.1h60a1.7 1.7 0 0 0 1.5-1 1.7 1.7 0 0 0-.3-1.9 1.7 1.7 0 0 0-1.3-.5h-59.9a1.7 1.7 0 0 0-1.5 1l-.2.7zm4.5-3.5h54.4v-31.9h-54.4zm57.1-37.1h-59.9a1.7 1.7 0 0 0-1.5 1 1.7 1.7 0 0 0 .3 1.9 1.7 1.7 0 0 0 1.2.5h60a1.7 1.7 0 0 0 1.5-1 1.7 1.7 0 0 0-.3-2 1.7 1.7 0 0 0-1.3-.4z"/>
          <path d="M548 336.2h-4.8v8.7l-.1.6-.6.3-.6-.1a.9.9 0 0 1-.4-.5l-5.8-13.6a.9.9 0 0 1 0-1 .9.9 0 0 1 .8-.3h4.9v-8.7l.1-.6.6-.3.6.1c.2.1.3.2.4.5l5.8 13.6a.9.9 0 0 1 0 .9.9.9 0 0 1-.9.4zm-4.8-10v5a.9.9 0 0 1-.3.6 1 1 0 0 1-.6.3h-4.4l3.5 8.2v-5a1 1 0 0 1 .6-.9h4.7z"/>
          <path d="M525.1 343h-2v1.9a.9.9 0 0 1-.5.8 1 1 0 0 1-1-.2 1 1 0 0 1-.2-.6v-2h-2a1 1 0 0 1-.8-.5.9.9 0 0 1 .2-1 1 1 0 0 1 .6-.3h2v-2a1 1 0 0 1 .5-.8 1 1 0 0 1 1 .2 1 1 0 0 1 .3.6v2h2a1 1 0 0 1 .8.6 1 1 0 0 1-.2 1 1 1 0 0 1-.7.2z"/>
          <path d="M565.2 343h-5.7a1 1 0 0 1-.9-.6.9.9 0 0 1 .2-1 1 1 0 0 1 .7-.3h5.7a1 1 0 0 1 .8.6 1 1 0 0 1-.2 1 1 1 0 0 1-.6.2z"/>
        </g>
        <g class="icon">
          <path d="M469 351h-24l-19-14-8.8-6.5 24.1-8 7.5 7.7L469 351zm-24.3 1.7H471c.2 0 .4 0 .6-.2.3-.4.4-1 0-1.3L450.1 329l-7.9-8a.9.9 0 0 0-1-.3l-26.1 8.7c-.2 0-.4.2-.5.4-.3.4-.2 1 .2 1.2l.5-.7-.5.7 10.1 7.5 19.2 14.1.6.2z"/>
          <path d="M449.2 328.4a.9.9 0 1 1-1.7 0v-16.6a.9.9 0 1 1 1.7 0v16.6zm6.4-16.6a.9.9 0 1 1 1.8 0v25a.9.9 0 1 1-1.8 0z"/>
          <path d="M436.2 312.7a.9.9 0 0 1 0-1.7h32.5a.9.9 0 0 1 0 1.7h-32.5z"/>
          <path d="M455.5 351.2c.4.3.4.8.1 1.2-.3.4-.9.4-1.2.1L425 327.4a.9.9 0 0 1 0-1.3c.3-.3.8-.4 1.2 0z"/>
          <path d="M425.7 338.5c-.5.1-1-.1-1.1-.6-.1-.5.1-1 .6-1.1l25-7c.5-.2 1 0 1.1.6.1.4-.1 1-.6 1l-25 7.1z"/>
          <path d="M433.3 344.2c-.5 0-1-.2-1-.7-.2-.5.1-1 .6-1l24.9-5c.4-.2 1 .2 1 .6.1.5-.2 1-.7 1l-24.8 5z"/>
          <path d="M438.4 348c-.5 0-1-.3-1-.8s.3-.9.8-1l26-2.2c.6 0 1 .4 1 .8 0 .5-.3 1-.8 1l-26 2.2z"/>
          <path d="M417.3 375.3a11.3 11.3 0 0 0 11.4-11.4 11.4 11.4 0 0 0-19.4-8 11.4 11.4 0 0 0 8 19.4zm6.8-4.6a9.5 9.5 0 0 1-13.6 0 9.6 9.6 0 0 1 13.6-13.6 9.6 9.6 0 0 1 0 13.6z"/>
          <path d="M418.2 383.8a.9.9 0 1 1-1.8 0v-5.2a.9.9 0 1 1 1.8 0z"/>
          <path d="M432 377.3c.3.4.3 1 0 1.3-.4.3-1 .3-1.3 0l-3.6-3.7a.9.9 0 0 1 0-1.2c.3-.4.9-.4 1.2 0z"/>
          <path d="M437.1 363a.9.9 0 0 1 0 1.8h-5a.9.9 0 0 1 0-1.8z"/>
          <path d="M430.7 349.2c.4-.4 1-.4 1.3 0 .3.3.3.9 0 1.2l-3.7 3.7c-.3.3-.9.3-1.2 0a.9.9 0 0 1 0-1.3z"/>
          <path d="M416.4 344a.9.9 0 1 1 1.8 0v5.1a.9.9 0 1 1-1.8 0z"/>
          <path d="M402.7 350.4a.9.9 0 0 1 0-1.2c.3-.4.9-.4 1.2 0l3.6 3.6c.4.3.4 1 0 1.3-.3.3-.9.3-1.2 0z"/>
          <path d="M397.5 364.8a.9.9 0 0 1 0-1.8h5.1a.9.9 0 0 1 0 1.8h-5.1z"/>
          <path d="M404 378.6c-.4.3-1 .3-1.3 0a.9.9 0 0 1 0-1.3l3.6-3.6c.3-.4.9-.4 1.2 0 .4.3.4.9 0 1.2z"/>
        </g>
        <g transform="translate(422.2 271.5)">
          <text xml:space="preserve" class="label" transform="scale(1 -1)">PV</text>
        </g>
        <g transform="translate(498.6 271.5)">
          <text xml:space="preserve" class="label" transform="scale(1 -1)">Battery</text>
        </g>
        <g transform="translate(620.4 271.5)">
          <text xml:space="preserve" class="label" transform="scale(1 -1)">Grid</text>
        </g>
    <g>
                <path d="M912.8 388.6h234.7c17.5 0 28 0 35-2.9 10-3.6 17.9-11.6 21.6-21.6 2.9-7 2.9-17.5 2.9-35v-13.6c0-17.4 0-28-3-34.9-3.6-10-11.5-18-21.6-21.6-7-3-17.4-3-34.9-3H912.8c-17.4 0-28 0-34.9 3-10 3.6-18 11.5-21.6 21.6-3 7-3 17.5-3 35v13.6c0 17.4 0 27.9 3 34.9 3.6 10 11.5 18 21.6 21.6 7 3 17.5 3 35 3z" style="fill:#fffcf8;fill-opacity:0;fill-rule:nonzero;stroke:none"/>
                <g transform="matrix(1 0 0 -1 853.3 388.6)">
                  <path d="M59.5 0h234.7C311.6 0 322 0 329 3c10 3.6 18 11.5 21.6 21.6 3 7 3 17.4 3 34.9V73c0 17.5 0 28-3 35-3.6 10-11.6 18-21.6 21.6-7 2.9-17.5 2.9-35 2.9H59.6c-17.5 0-28 0-35-3-10-3.6-18-11.5-21.6-21.6C0 101 0 90.6 0 73.1V59.5c0-17.5 0-28 3-35 3.6-10 11.5-18 21.6-21.6C31.6 0 42 0 59.5 0Z" style="fill:none;stroke:#939393;stroke-width:2;stroke-linecap:butt;stroke-linejoin:miter;stroke-miterlimit:4;stroke-dasharray:none"/>
                </g>
    </g>
        <g transform="translate(918.9 406.2)">
          <text xml:space="preserve" class="header" transform="scale(1 -1)">Contextual Data</text>
        </g>
        <g transform="translate(894.7 271.5)">
          <text xml:space="preserve" class="label" transform="scale(1 -1)">News</text>
        </g>
        <g transform="translate(991 271.5)">
          <text xml:space="preserve" class="label" transform="scale(1 -1)">Events</text>
        </g>
        <g transform="translate(1086 271.5)">
          <text xml:space="preserve" class="label" transform="scale(1 -1)">Internet</text>
        </g>
        <g class="icon">
          <path d="M908.2 322.6v-8a5 5 0 0 0-1-3.2H949a6.3 6.3 0 0 1 6.3 6.3v47a1.7 1.7 0 0 1-1.7 1.8H910a1.7 1.7 0 0 1-1.8-1.7v-42.2zm6.1-5.4a1 1 0 0 0 0 2h34.9a1 1 0 0 0 0-2h-34.9zm0 7a1 1 0 0 0 0 1.9h34.9a1 1 0 0 0 0-2h-34.9zm0 6.8a1 1 0 0 0 0 2h34.9a1 1 0 0 0 0-2h-34.9zm18.9 7a1 1 0 0 0 0 2h16a1 1 0 0 0 0-2zm0 6.9a1 1 0 0 0 0 2h16a1 1 0 0 0 0-2zm0 6.9a1 1 0 0 0 0 2h16a1 1 0 0 0 0-2zm-18.9 6.9a1 1 0 0 0 0 2h34.9a1 1 0 0 0 0-2zm0-2.7h15c.5 0 1-.4 1-1v-18.3c0-.6-.5-1-1-1h-15a1 1 0 0 0-1 1V355c0 .6.5 1 1 1zm14-2h-13v-16.4h13V354zm-22-31.4v31.5h-5.4a.9.9 0 0 1-1-.9v-38.7a3.1 3.1 0 0 1 3.2-3.1 3.1 3.1 0 0 1 3.1 3.1v8zm0 33.5v8.7a3.7 3.7 0 0 0 3.7 3.7h43.6a3.7 3.7 0 0 0 3.7-3.7v-47.1c0-2.3-1-4.4-2.4-5.9a8.2 8.2 0 0 0-5.9-2.4h-45.9a5.1 5.1 0 0 0-5.1 5.1v38.7a2.9 2.9 0 0 0 2.9 3h5.3z"/>
        </g>
        <g class="icon">
          <path d="M1150.9 340h1.2l-2.3-7h-1.3l-1 3-.5 1.7-.6-1.8-1-2.8h-1.3l-2.2 6.9h.6c.7 0 1 0 1.1-.4l.7-2.2.6-2 .6 1.8.8 2.4c0 .2.2.4.5.4h.1c.4 0 .7 0 .8-.4l.8-2.3.6-1.9v.2l.7 2.2c.6 2 .6 2.1 1 2.1zm-10.7 0h1.2l-2.2-7h-1.4l-.9 2.8-.6 2-.6-1.9-1-2.8h-1.3l-2.2 6.9h.6c.7 0 1 0 1.2-.4a1219.6 1219.6 0 0 1 1.2-4.2 80 80 0 0 0 1.4 4.2c.1.4.5.4.8.4h.1c.3 0 .5-.2.6-.4l.7-2.3.7-1.9.6 2.2.6 2c0 .2.2.4.5.4zm-9.6 0h.1l-2.2-7h-1.3l-1 3-.6 1.7-.6-1.8-1-2.8h-1.3l-2.2 6.9h.7c.6 0 1 0 1.1-.4l.7-2.2.5-2 .7 2 .7 2.2c.1.2.3.4.6.4h.1c.3 0 .7 0 .8-.4l.8-2.3.6-1.9.6 2 .6 2.2.2.2c.2.2.3.2.8.2h.6zm17.7-21.4c1 2.6 1.9 5.7 2.4 9h4.8c3.5 0 6.3 2.7 6.3 6v4.4c2 .7 3.9 1.4 5.5 2.2v-1.5c0-5.5-1.5-10.7-4.3-15.2a54 54 0 0 0-14.7-5zm-5.5-9.1a22 22 0 0 1 4.5 6.6c4.6.9 9.2 2.1 13 3.7a31.3 31.3 0 0 0-17.5-10.3zm-5.4-.5v6c2.3.1 4.7.3 7.1.7-2-3.7-4.4-6.2-7-6.7zm11 18.6c-.7-3.6-1.6-6.8-2.8-9.5-2.7-.5-5.5-.7-8.2-.8v10.3zm-31.3 2.2a4 4 0 0 0-4 3.9v5.7a4 4 0 0 0 4 3.9h38.4a4 4 0 0 0 4-4v-5.6a4 4 0 0 0-4-4zm18-12.5c-2.6 0-5.4.3-8.1.7-1.2 2.7-2.1 6-2.8 9.6h11zm0-8.3c-2.6.5-5 3-7 6.6 2.4-.3 4.8-.5 7-.5zm-22.4 10.4c3.6-1.5 8-2.6 12.6-3.4 1.3-2.7 2.8-4.9 4.5-6.5-6.8 1.4-12.8 5-17.1 9.9zm-7.5 19.3v1.5c1.7-.8 3.6-1.5 5.5-2.2v-4.3c0-3.4 3-6.1 6.4-6.1h4.7c.6-3.4 1.5-6.5 2.5-9.1-5.7 1-11 2.7-14.5 4.6a28.9 28.9 0 0 0-4.6 15.6zm9 21a29 29 0 0 1 9.3-2.8c-1-3.4-1.8-7.2-2.2-11.4h-4.2a6.3 6.3 0 0 1-6.3-5.1c-2 .6-3.8 1.4-5.3 2.2.9 6.7 4 12.6 8.7 17.2zm15.6 8.3c-2.1-2-4-5.1-5.5-9a28 28 0 0 0-8.3 2.4c4 3.2 8.6 5.5 13.8 6.6zm5.3-11.8v-10.7h-11.5c.4 4 1.2 7.8 2.3 11.1 2.7-.3 5.8-.4 9.2-.4zm0 12.3v-10c-3.1 0-5.9 0-8.4.3 2.1 5.4 5.1 9 8.4 9.7zm2.3-12.3c3.5 0 6.5.1 9.3.4 1-3.3 1.9-7 2.3-11.1h-11.6zm0 12.3c3.3-.7 6.3-4.3 8.5-9.7-2.5-.3-5.3-.3-8.5-.4zm19.2-7.1a28 28 0 0 0-8.3-2.4 24.3 24.3 0 0 1-5.5 9c5.2-1 9.9-3.4 13.8-6.6zm10.5-18.8c-1.5-.8-3.3-1.6-5.4-2.2a6.3 6.3 0 0 1-6.2 5h-4.2a55 55 0 0 1-2.3 11.5 29 29 0 0 1 9.4 2.9 29.4 29.4 0 0 0 8.7-17.2zm-30.8 28.3a32.8 32.8 0 0 1-33.4-32.2c0-17.7 15-32 33.4-32a32.8 32.8 0 0 1 33.4 32c0 17.8-15 32.2-33.4 32.2"/>
        </g>
        <g class="icon">
          <path d="M1057.4 335v30.8h-6.7v4.5h-2.5v-4.5h-8v4.5h-2.4v-4.5h-8.6v4.5h-2.4v-4.5h-7.4v4.5h-2.5v-4.5h-8.6v4.5h-2.4v-4.5h-7.5V315h38.1a15.9 15.9 0 0 1 15.3-11 16 16 0 0 1 12.1 26.3 15.8 15.8 0 0 1-6.5 4.6zm-51.5 28.3v-2.9h2.4v3h8.6v-3h2.5v3h7.4v-3h2.4v3h8.6v-3h2.5v3h8v-3h2.4v3h4.2V355h-54.1v8.3zm-5.1-45.8v35.1h54.1v-17l-.7.2-1.1.1h-1.3a16 16 0 0 1-16-15.9v-1.5l.1-.8v-.2zm51-11a13.6 13.6 0 0 0-13.2 10.1 13.3 13.3 0 0 0 1.9 11 13.5 13.5 0 0 0 11.2 6l1.1-.1a12.4 12.4 0 0 0 5.2-1.5 13.5 13.5 0 0 0 2.5-22.2 13.5 13.5 0 0 0-8.8-3.3z"/>
          <path d="M1050.7 326.8h-2.5v-9.6l8.4-4.9 1.3 2.1-7.2 4.2z"/>
          <path d="M1015.7 340.6h8.4v8.4h-8.4zm2.4 6h3.6V343h-3.6z"/>
          <path d="M1026.7 340.6h8.5v8.4h-8.5zm2.5 6h3.5V343h-3.5z"/>
          <path d="M1046.6 349h-8.5v-8.4h8.5zm-2.5-6h-3.5v3.6h3.5z"/>
          <path d="M1004.6 340.6h8.5v8.4h-8.5zm2.5 6h3.5V343h-3.5z"/>
          <path d="M1004.6 324.5h8.5v8.5h-8.5zm2.5 6h3.5V327h-3.5z"/>
          <path d="M1015.7 324.5h8.4v8.5h-8.4zm2.4 6h3.6V327h-3.6z"/>
          <path d="M1026.7 324.5h8.5v8.5h-8.5zm2.5 6h3.5V327h-3.5z"/>
        </g>
        <g transform="matrix(1 0 0 -1 719.9 324)">
          <path d="M0 0h132.7" class="arrow-line data-collection" />
        </g>
        <g>
          <g transform="matrix(0 1 1 0 783 324.1)">
            <path d="M0 0h29.3" class="arrow-line data-collection" />
          </g>
          <path d="M789.5 352 783 365l-6.6-13.2z" class="arrow-tip data-collection" />
        </g>
        <g transform="matrix(1 0 0 -1 1225.5 756)">
          <path d="M0 0h87" class="data-delivery arrow-line" />
        </g>
        <g transform="translate(1330.7 746)">
          <text xml:space="preserve" class="header" transform="scale(1 -1)">Data Delivery</text>
        </g>
        <g>
          <g transform="matrix(0 -1 -1 0 541.7 542.1)">
            <path d="M0 0h88.6" class="arrow-line control-signal" />
          </g>
          <path d="m535 455 6.7-13.2 6.6 13.2z" class="arrow-tip control-signal" />
        </g>
        <g transform="matrix(1 0 0 -1 1225.5 712.2)">
          <path d="M0 0h87" class="arrow-line control-signal"/>
        </g>
        <g transform="translate(1330.4 702.1)">
          <text xml:space="preserve" class="header" transform="scale(1 -1)">Control Signal</text>
        </g>
    <g>

                <path d="M956.8 763h146.7c17.5 0 28 0 35-2.9 10-3.7 18-11.6 21.6-21.6 2.9-7 2.9-17.5 2.9-35V602.2c0-17.4 0-27.9-3-34.9-3.6-10-11.5-18-21.6-21.6-7-3-17.4-3-34.9-3H956.8c-17.5 0-28 0-35 3-10 3.6-18 11.6-21.6 21.6-2.9 7-2.9 17.5-2.9 35v101.4c0 17.4 0 27.9 3 34.9 3.6 10 11.5 18 21.6 21.6 7 3 17.4 3 34.9 3z" style="fill:#fffcf8;fill-opacity:0;fill-rule:nonzero;stroke:none"/>
                <g transform="matrix(1 0 0 -1 897.3 763)">
                  <path d="M59.5 0h146.7c17.5 0 28 0 35 3 10 3.6 18 11.5 21.6 21.6 2.9 7 2.9 17.4 2.9 34.9v101.4c0 17.5 0 28-3 35-3.6 10-11.5 17.9-21.6 21.6-7 2.9-17.4 2.9-34.9 2.9H59.5c-17.5 0-28 0-35-3-10-3.6-18-11.5-21.6-21.6C0 188.8 0 178.4 0 161V59.5c0-17.5 0-28 3-35 3.6-10 11.5-18 21.6-21.6C31.6 0 42 0 59.5 0Z" style="fill:none;stroke:#939393;stroke-width:2;stroke-linecap:butt;stroke-linejoin:miter;stroke-miterlimit:4;stroke-dasharray:none"/>
                </g>

    </g>
        <g transform="translate(957.4 780.2)">
          <text xml:space="preserve" class="header" transform="scale(1 -1)">Simulation</text>
        </g>
    <g>
        <g transform="translate(971.6 603.9)">
          <text xml:space="preserve" class="label" transform="scale(1 -1)">OpenCEM</text>
        </g>
        <g transform="translate(974.3 574.2)">
          <text xml:space="preserve" class="label" transform="scale(1 -1)">Simulator</text>
        </g>
    </g>
    <g>

                <path d="M1322.7 574.2H1458c15.2 0 24.3 0 30.4-2.6a31.6 31.6 0 0 0 19-18.9c2.5-6 2.5-15.2 2.5-30.5v-88.5c0-15.3 0-24.4-2.6-30.5a31.6 31.6 0 0 0-18.9-19c-6-2.5-15.2-2.5-30.4-2.5h-135.3c-15.2 0-24.3 0-30.4 2.6a31.6 31.6 0 0 0-19 18.9c-2.5 6-2.5 15.2-2.5 30.5v88.5c0 15.3 0 24.4 2.6 30.5a31.6 31.6 0 0 0 18.9 19c6 2.5 15.2 2.5 30.4 2.5z" style="fill:#fffcf8;fill-opacity:0;fill-rule:nonzero;stroke:none"/>
                <g transform="matrix(1 0 0 -1 1270.8 574.2)">
                  <path d="M52 0H187c15.3 0 24.4 0 30.5 2.5a31.6 31.6 0 0 1 19 19c2.5 6 2.5 15.2 2.5 30.4v88.6c0 15.2 0 24.4-2.6 30.5a31.6 31.6 0 0 1-18.9 18.9c-6 2.5-15.2 2.5-30.5 2.5H52c-15.2 0-24.4 0-30.5-2.5a31.6 31.6 0 0 1-18.9-19C0 165 0 155.8 0 140.6V51.9c0-15.2 0-24.4 2.5-30.5a31.6 31.6 0 0 1 19-18.9C27.4 0 36.6 0 51.8 0Z" style="fill:none;stroke:#939393;stroke-width:2;stroke-linecap:butt;stroke-linejoin:miter;stroke-miterlimit:4;stroke-dasharray:none"/>
                </g>
    </g>
        <g class="icon">
          <path d="M1434.7 550.7H1348a7.9 7.9 0 0 1-7.9-7.8v-61.3c0-4.4 3.5-7.9 7.9-7.9h28.8l-3.2-8.8h-2a7.9 7.9 0 0 1-7.8-7.9v-2.4c0-.6.5-1.1 1.2-1.1h52.9c.6 0 1 .5 1 1.1v2.6c0 4.3-3.5 7.8-7.8 7.8h-1.9l-3.2 8.9h28.8c4.4 0 7.9 3.5 7.9 7.8V543c0 4.2-3.5 7.7-7.9 7.7zm-92.3-7.8c0 3 2.4 5.4 5.5 5.4h87c3 0 5.5-2.4 5.5-5.4v-5h-98zm97.8-7.4v-48.2h-97.8v48.2h97.8zm-23.6-78.3v-1.3H1366v1.3c0 3 2.4 5.4 5.4 5.4h39.6c3 0 5.6-2.4 5.6-5.4zm-10 7.8H1376l3.2 8.9h24.2zm33.6 16.6c0-3-2.4-5.5-5.5-5.5h-87c-3 0-5.4 2.4-5.4 5.5v3.5h97.9v-3.5z"/>
          <path d="M1368.7 514.6a9.7 9.7 0 0 1 0 19.3 9.7 9.7 0 0 1 0-19.3zm0 16.9c4 0 7.2-3.2 7.2-7.2s-3.2-7.3-7.2-7.3-7.2 3.2-7.2 7.3c0 4 3.2 7.2 7.2 7.2z"/>
          <path d="M1350.1 490.7h37c.7 0 1.2.5 1.2 1.1v7.6c0 8.2-6.6 14.8-15 14.8-.4 0-.8-.4-1-.7l-3.8-7.4-3.6 7.4c-.2.3-.7.7-1.2.7-8.1 0-14.7-6.6-14.7-14.8v-7.6c0-.6.5-1 1.1-1zm1.3 8.7c0 6.6 5.3 12 11.8 12.3l4.5-8.6c.2-.3.7-.7 1.2-.7.4 0 .8.4 1 .7l4.6 8.6c6.5-.3 11.8-5.7 11.8-12.5v-6.4h-4.1l-.8 6.6c-.2.6-.7 1.1-1.3 1-.7-.2-1.1-.7-1-1.3l.8-6.3h-22l.9 6.3c.1.6-.4 1.2-1 1.2-.6.2-1.3-.3-1.3-1l-.8-6.5h-4.3z"/>
          <path d="M1431.4 544.3h-41.5c-.7 0-1.2-.5-1.2-1.1 0-.6.5-1.1 1.2-1.1h41.5c.6 0 1.1.5 1.1 1.1 0 .5-.5 1.1-1.1 1.1z"/>
          <path d="M1350.3 546.6c-2 0-3.4-1.6-3.4-3.4 0-1.8 1.6-3.4 3.4-3.4 1.9 0 3.3 1.6 3.3 3.4 0 1.8-1.4 3.4-3.3 3.4zm0-4.5c-.7 0-1.2.5-1.2 1 0 .6.5 1 1.2 1 .6 0 1-.4 1-1 0-.5-.4-1-1-1z"/>
          <path d="M1358.3 546.6c-2 0-3.4-1.6-3.4-3.4 0-1.8 1.6-3.4 3.4-3.4 1.9 0 3.3 1.6 3.3 3.4 0 1.8-1.4 3.4-3.3 3.4zm0-4.5c-.7 0-1.1.5-1.1 1.1 0 .6.4 1.1 1 1.1.7 0 1.2-.5 1.2-1.1 0-.6-.6-1.1-1.1-1.1z"/>
          <path d="M1366.3 546.6c-2 0-3.4-1.6-3.4-3.4 0-1.8 1.6-3.4 3.4-3.4 1.8 0 3.4 1.6 3.4 3.4 0 1.8-1.5 3.4-3.4 3.4zm0-4.5c-.6 0-1.1.5-1.1 1.1 0 .6.5 1.1 1.1 1.1.6 0 1.1-.5 1.1-1.1-.1-.6-.6-1.1-1.1-1.1z"/>
          <path d="M1391.3 477.2c2 0 3.4 1.6 3.4 3.4 0 1.8-1.6 3.4-3.4 3.4a3.4 3.4 0 0 1 0-6.7zm0 4.5c.6 0 1.1-.5 1.1-1 0-.7-.5-1.2-1.1-1.2-.6 0-1.1.5-1.1 1.1 0 .6.5 1.1 1.1 1.1z"/>
          <path d="M1393.5 513.2h42c.7 0 1.2.5 1.2 1.1v13.2c0 .6-.5 1.1-1.2 1.1h-42c-.6 0-1-.5-1-1.1v-13.2c0-.6.4-1.1 1-1.1zm1.2 13.1h39.7v-10.9h-39.7z"/>
          <path d="M1393.5 494.2h42c.7 0 1.2.5 1.2 1.2v13.1c0 .7-.5 1.2-1.2 1.2h-42c-.6 0-1-.5-1-1.2v-13.1c0-.7.4-1.2 1-1.2zm1.2 13.2h39.7v-10.9h-39.7z"/>
          <path d="M1403 524.6h-4.8c-.6 0-1.1-.5-1.1-1.1v-4.9c0-.6.5-1 1.1-1h4.8c.6 0 1.1.4 1.1 1v4.9c0 .4-.5 1-1 1zm-1.3-4.8h-2.4v2.4h2.4z"/>
          <path d="M1413.9 524.6h-4.8c-.6 0-1.1-.5-1.1-1.1v-4.9c0-.6.5-1 1.1-1h4.8c.6 0 1.1.4 1.1 1v4.9c0 .4-.5 1-1 1zm-1.3-4.8h-2.4v2.4h2.4z"/>
          <path d="M1403 505.5h-4.8c-.6 0-1.1-.5-1.1-1.1v-4.9c0-.6.5-1 1.1-1h4.8c.6 0 1.1.4 1.1 1v4.9c0 .6-.5 1-1 1zm-1.3-4.7h-2.4v2.4h2.4z"/>
          <path d="M1413.9 505.5h-4.8c-.6 0-1.1-.5-1.1-1.1v-4.9c0-.6.5-1 1.1-1h4.8c.6 0 1.1.4 1.1 1v4.9c0 .6-.5 1-1 1zm-1.3-4.7h-2.4v2.4h2.4z"/>
        </g>
        <g transform="translate(1357.7 406.3)">
          <text xml:space="preserve" class="label" transform="scale(1 -1)">Users</text>
        </g>
        <g transform="matrix(1 0 0 -1 1225.5 800)">
          <path d="M0 0h87" class="arrow-line data-collection"/>
        </g>
        <g transform="translate(1330.5 789.9)">
          <text xml:space="preserve" class="header" transform="scale(1 -1)">Data Collection</text>
        </g>
      <g>
        <g transform="matrix(1 0 0 -1 675 652.8)">
          <path d="M11.7 0h199.1" class="arrow-line feedback" />
        </g>
        <path d="m884.3 646.2 13.2 6.6-13.2 6.6z" class="arrow-tip feedback" />
        <path d="m688.1 659.4-13.2-6.6 13.2-6.6z" class="arrow-tip feedback" />
      </g>
      <g>
        <g transform="matrix(1 0 0 -1 846.4 494.9)">
          <path d="M0 0h411.2" class="data-delivery arrow-line"/>
        </g>
        <path d="m1256.2 488.3 13.2 6.6-13.2 6.6z" class="data-delivery arrow-tip"/>
      </g>
      <g>
        <g transform="matrix(1 0 0 -1 846.4 462.8)">
          <path d="M11.7 0h411.2" class="arrow-line data-collection"/>
        </g>
        <path d="m859.6 469.4-13.2-6.6 13.2-6.6z" class="arrow-tip data-collection" />
      </g>
        <g transform="translate(711 670.8)">
          <text xml:space="preserve" class="label" transform="scale(1 -1)">Performance</text>
        </g>
        <g transform="translate(728.1 618.7)">
          <text xml:space="preserve" class="label" transform="scale(1 -1)">Validation</text>
        </g>
    <g>
          <g transform="scale(1 -1) rotate(-34.5 -450.1 -1589.6)">
            <path d="M0 0h76" class="data-delivery arrow-line"/>
          </g>
          <path d="m886.5 571.4 7.1 13-14.6-2z" class="data-delivery arrow-tip"/>
    </g>
    <g>
          <g transform="scale(-1 1) rotate(34.5 -1236.8 -943.4)">
            <path d="M0 0h76" class="data-delivery arrow-line"/>
          </g>
          <path d="m694.4 582.3-14.6 2 7.1-12.9z" class="data-delivery arrow-tip"/>
    </g>
        <g transform="translate(1266.3 592.7)">
          <text xml:space="preserve" class="header" transform="scale(1 -1)">Frontend Website</text>
        </g>

        <g>
          <g transform="scale(1 -1) rotate(45 1374.8 1077.3)">
            <path d="M11.7 0h130.9" class="arrow-line feedback" />
          </g>
          <path d="m1259.6 552.2 14-4.7-4.7 14z" class="arrow-tip feedback" />
          <path d="m1178.5 652-14 4.6 4.6-14z" class="arrow-tip feedback" />
        </g>
        <g transform="matrix(1 0 0 -1 1225.5 668.3)">
          <path d="M0 0h87" class="arrow-line feedback"/>
        </g>
        <g transform="translate(1330.7 656.2)">
          <text xml:space="preserve" class="header" transform="scale(1 -1)">Feedback</text>
        </g>
        <g class="icon">
          <path d="M1081.3 732.2H982a5.2 5.2 0 0 1-5.2-5v-60c0-3 2.3-5.2 5.2-5.2h47.9v-3.5h-15.4c-1 0-1.7-.7-1.7-1.7s.7-1.7 1.7-1.7h34.2c1 0 1.7.8 1.7 1.7 0 1-.7 1.7-1.7 1.7h-15.4v3.5h48c2.8 0 5 2.3 5 5.1v60c0 2.8-2.2 5.1-5 5.1zm-24.9-66.8H982c-1 0-1.8.8-1.8 1.7v60c0 1 .8 1.7 1.8 1.7h74.4zm26.6 1.7c0-1-.8-1.7-1.7-1.7h-21.4v63.4h21.4c.9 0 1.7-.8 1.7-1.7z"/>
          <path d="M996.8 680.4c.3 0 .6 0 1 .3l6 3.8 14-7.7c.2-.2.5-.3.8-.3.3 0 .6.1.8.3l14 7.8 6.6-4 .8-.2c.6 0 1.2.3 1.5.9.5.7.3 1.8-.6 2.3l-6 3.6V704c0 .6-.3 1.2-.8 1.4l-14.6 8v6c0 1-.8 1.7-1.7 1.7-1 0-1.7-.8-1.7-1.7v-5.8l-14.6-8c-.5-.4-.8-1-.8-1.5v-17l-5.6-3.4c-.8-.6-1-1.6-.5-2.4.3-.6.8-1 1.4-1zm35.4 7.5-12-6.7v14.4l12 5.6zm-13.7 22.7 11.6-6.5-11.6-5.5-11.6 5.5zm-13.7-9.4 12-5.6v-14.4l-12 6.7z"/>
          <path d="M1077.8 699.7h-12c-.9 0-1.7-.8-1.7-1.7 0-1 .8-1.7 1.7-1.7h12a1.7 1.7 0 0 1 0 3.4z"/>
          <path d="M1077.8 691.1h-12a1.7 1.7 0 0 1 0-3.4h12a1.7 1.7 0 0 1 0 3.4z"/>
          <path d="M1077.8 682.5h-12a1.7 1.7 0 0 1 0-3.4h12a1.7 1.7 0 0 1 0 3.4z"/>
          <path d="M1077.8 674h-12a1.7 1.7 0 0 1 0-3.5h12a1.7 1.7 0 0 1 0 3.5z"/>
          <path d="M1077.8 725.4h-12c-.9 0-1.7-.8-1.7-1.7v-18.9c0-1 .8-1.7 1.7-1.7h12c1 0 1.7.8 1.7 1.7v18.9c0 1-.7 1.7-1.7 1.7zm-1.7-18.9h-8.5V722h8.5z"/>
        </g>
        <g class="icon">
          <path d="M540.9 713.2a1.5 1.5 0 0 1-2.8 0l-4.4-11.8c-.3-.8 0-1.6.9-1.9.7-.3 1.6.1 1.9.9l.7 2h4.6l.8-2a1.5 1.5 0 0 1 1.9-.9c.7.3 1.1 1.1.8 2l-4.4 11.7zm-2.6-7.9 1.2 3.2 1.2-3.2h-2.4z"/>
          <path d="M548.4 714.2c-.8 0-1.5-.7-1.5-1.5v-11.8a1.5 1.5 0 0 1 3 0v11.8c0 .8-.7 1.5-1.5 1.5z"/>
          <path d="M542.5 681.7a25.1 25.1 0 0 0 0 50.2c.8 0 1.4.6 1.4 1.5v16.2c0 .8-.6 1.5-1.4 1.5h-7.8c-.7 0-1.3-.5-1.5-1.2l-2-8.4c-1.9-.6-3.6-1.3-5.3-2.2l-7.5 4.5c-.5.4-1.3.3-1.8-.2l-11-11c-.5-.5-.6-1.2-.2-1.8l4.5-7.5c-.8-1.6-1.6-3.4-2.1-5.2l-8.5-2c-.7-.2-1.2-.8-1.2-1.5V699c0-.6.5-1.2 1.2-1.4l8.5-2.1c.5-1.8 1.3-3.5 2-5.2l-4.4-7.5c-.4-.6-.3-1.3.2-1.8l11-11c.5-.4 1.3-.5 1.8-.2l7.5 4.5a35 35 0 0 1 5.2-2.1l2.1-8.5c.2-.7.8-1.1 1.5-1.1h7.8c.8 0 1.4.6 1.4 1.4v16.3c0 .8-.6 1.4-1.4 1.4zm-1.5-16.2h-5.2l-2 8.1c-.1.5-.5 1-1 1.1-2.2.7-4.3 1.5-6.2 2.6-.5.2-1 .2-1.5 0l-7.2-4.4-9.4 9.4 4.4 7.2c.2.4.2 1 0 1.4-1 2-2 4-2.6 6.2-.1.5-.5 1-1 1l-8.2 2v13.3l8.2 2c.5.2.9.6 1 1 .7 2.2 1.5 4.3 2.6 6.3.2.4.2 1 0 1.4l-4.4 7.2 9.4 9.4 7.2-4.3c.5-.3 1-.3 1.5 0 2 1 4 1.8 6.2 2.5.5.1.9.5 1 1l2 8.2h5.2v-13.3a28 28 0 0 1 0-56z"/>
          <path d="M578 712.7a6 6 0 0 1-5.8-4.4h-15v5.9h6c.4 0 .8.2 1 .5l5.5 5.9a6 6 0 1 1-2.3 1.8l-4.9-5.3h-5.3v3c0 .8-.6 1.5-1.4 1.5h-3v3a1.5 1.5 0 0 1-3 0v-3H544v3a1.5 1.5 0 0 1-3 0v-3h-5.8v3a1.5 1.5 0 0 1-3 0v-3h-3c-.7 0-1.4-.7-1.4-1.5v-3h-3c-.8 0-1.4-.6-1.4-1.4 0-.9.6-1.5 1.4-1.5h3v-6h-3c-.8 0-1.4-.6-1.4-1.4 0-.8.6-1.5 1.4-1.5h3v-5.9h-3c-.8 0-1.4-.6-1.4-1.5 0-.8.6-1.4 1.4-1.4h3v-3c0-.8.7-1.5 1.5-1.5h3v-3a1.5 1.5 0 0 1 2.9 0v3h5.9v-3a1.5 1.5 0 0 1 3 0v3h5.9v-3a1.5 1.5 0 0 1 3 0v3h2.9c.8 0 1.4.7 1.4 1.5v3h5.3l4.8-5.3a5.8 5.8 0 0 1 4.7-9.5 6 6 0 1 1-2.3 11.3l-5.4 6c-.3.2-.7.4-1.1.4h-6v6h15a6 6 0 1 1 5.7 7.3zm-6 16.2a3 3 0 0 0 3-3 3 3 0 0 0-6 0 3 3 0 0 0 3 3zm3-41.3a3 3 0 0 0-6 0 3 3 0 0 0 6 0zm-20.7 7.4h-23.7v23.6h23.7zm23.6 8.9a3 3 0 0 0-3 2.9 3 3 0 0 0 6 0 3 3 0 0 0-3-3z"/>
        </g>
  </g>
</svg>