<?xml version="1.0" standalone="no"?>
<!DOCTYPE svg PUBLIC "-//W3C//DTD SVG 20010904//EN"
 "http://www.w3.org/TR/2001/REC-SVG-20010904/DTD/svg10.dtd">
<svg version="1.0" xmlns="http://www.w3.org/2000/svg"
 width="2000pt" height="1000pt" viewBox="0 0 2000 1000"
 preserveAspectRatio="xMidYMid meet" style="background-color:white">
<g transform="translate(0,1000) scale(0.1,-0.1)"
fill="#000000" stroke="none">
<path d="M0 5000 l0 -5000 10000 0 10000 0 0 5000 0 5000 -10000 0 -10000 0 0
-5000z m12150 1280 l0 -220 -803 0 -804 0 -6 -482 c-4 -265 -7 -913 -7 -1440
l0 -958 810 0 810 0 0 -215 0 -215 -1055 0 -1055 0 0 883 c0 486 3 1330 7
1875 l6 992 1049 0 1048 0 0 -220z m2890 0 l0 -220 -1090 0 -1090 0 0 220 0
220 1090 0 1090 0 0 -220z m2780 -1655 l0 -1875 -220 0 -220 0 0 1660 0 1660
-210 0 -210 0 0 -1660 0 -1660 -220 0 -220 0 0 1660 0 1660 -205 0 -205 0 0
-1660 0 -1660 -225 0 -225 0 0 1875 0 1875 1080 0 1080 0 0 -1875z m-14990
335 c351 -101 582 -384 666 -815 25 -125 25 -441 0 -575 -80 -435 -338 -742
-701 -832 -126 -31 -362 -31 -480 1 -393 105 -652 447 -704 929 -46 428 54
806 278 1044 137 147 263 218 462 263 99 23 380 14 479 -15z m2062 -25 c314
-47 506 -196 574 -445 25 -90 25 -310 1 -400 -49 -184 -160 -321 -328 -404
-52 -25 -130 -55 -174 -66 -91 -23 -296 -40 -497 -40 l-138 0 0 -415 0 -415
-175 0 -175 0 0 1100 0 1100 408 0 c305 0 431 -4 504 -15z m2328 -130 l0 -145
-475 0 -475 0 0 -305 0 -305 405 0 405 0 0 -145 0 -145 -405 0 -405 0 0 -360
0 -360 495 0 495 0 0 -145 0 -145 -670 0 -670 0 0 1100 0 1100 650 0 650 0 0
-145z m1208 -492 c198 -351 415 -748 483 -883 67 -135 124 -238 126 -229 2 9
-4 95 -13 190 -14 139 -18 312 -21 867 l-4 692 165 0 166 0 0 -1100 0 -1100
-181 2 -182 3 -349 620 c-192 341 -407 736 -479 878 -71 141 -132 257 -137
257 -4 0 1 -87 11 -192 14 -155 19 -329 23 -880 l6 -688 -166 0 -166 0 0 1100
0 1100 179 0 179 0 360 -637z m6612 302 l0 -235 -1090 0 -1090 0 0 235 0 235
1090 0 1090 0 0 -235z m0 -1655 l0 -210 -1090 0 -1090 0 0 210 0 210 1090 0
1090 0 0 -210z"/>
<path d="M2413 4675 c-228 -62 -384 -268 -438 -579 -20 -116 -20 -356 0 -472
51 -299 208 -520 413 -584 142 -44 277 -34 409 30 154 76 270 238 330 465 25
94 27 113 27 325 0 212 -2 231 -27 324 -42 155 -95 254 -185 346 -83 83 -142
119 -239 144 -75 20 -219 20 -290 1z"/>
<path d="M4330 4264 l0 -407 223 6 c295 7 377 29 481 127 61 58 89 114 107
214 31 182 -37 334 -184 406 -100 49 -175 60 -414 60 l-213 0 0 -406z"/>
</g>
</svg>
